HIERARCHY
ROOT Hips
{
   OFFSET 0.00000 0.00000 0.00000
   CHANNELS 6 Xposition Yposition Zposition Zrotation Xrotation Yrotation
   JOINT RightUpLeg
   {
      OFFSET -8.945800 -8.667070 0.101652
      CHANNELS 3 Zrotation Xrotation Yrotation
      JOINT RightLeg
      {
         OFFSET 0.000000 -44.422697 1.372700
         CHANNELS 3 Zrotation Xrotation Yrotation
         JOINT RightFoot
         {
            OFFSET 0.253549 -42.092399 -1.460590
            CHANNELS 3 Zrotation Xrotation Yrotation
            JOINT RightToes
            {
               OFFSET 0.040000 -4.415090 8.499099
               CHANNELS 3 Zrotation Xrotation Yrotation
               End Site
               {
                  OFFSET -0.080000 -0.137448 9.779790
               }
            }
         }
      }
   }
   JOINT Spine
   {
      OFFSET 0.000000 11.890501 0.000000
      CHANNELS 3 Zrotation Xrotation Yrotation
      JOINT Spine1
      {
         OFFSET 0.000000 25.657401 0.127663
         CHANNELS 3 Zrotation Xrotation Yrotation
         JOINT HEad
         {
            OFFSET 0.000000 8.734161 0.011341
            CHANNELS 3 Zrotation Xrotation Yrotation
            End Site
            {
               OFFSET -0.290000 12.774200 2.513950
            }
         }
         JOINT LeftShoulder1
         {
            OFFSET 8.990000 -0.362252 -0.220000
            CHANNELS 3 Zrotation Xrotation Yrotation
            JOINT LeftArm
            {
               OFFSET 10.282700 -0.003380 0.322123
               CHANNELS 3 Zrotation Xrotation Yrotation
               JOINT LeftForeArm
               {
                  OFFSET 32.766900 0.099144 -1.424340
                  CHANNELS 3 Zrotation Xrotation Yrotation
                  JOINT LeftHand
                  {
                     OFFSET 27.564301 0.085362 1.022160
                     CHANNELS 3 Zrotation Xrotation Yrotation
                     End Site
                     {
                        OFFSET 16.744301 -0.600000 1.502910
                     }
                  }
               }
            }
         }
         JOINT RightShoulder
         {
            OFFSET -8.990000 -0.362252 -0.220000
            CHANNELS 3 Zrotation Xrotation Yrotation
            JOINT RightArm
            {
               OFFSET -10.282700 -0.003380 0.322123
               CHANNELS 3 Zrotation Xrotation Yrotation
               JOINT RightForeArm
               {
                  OFFSET -32.897098 0.099144 -1.424340
                  CHANNELS 3 Zrotation Xrotation Yrotation
                  JOINT RightHand
                  {
                     OFFSET -27.492101 0.085362 1.022160
                     CHANNELS 3 Zrotation Xrotation Yrotation
                     End Site
                     {
                        OFFSET -16.631201 -0.600000 1.502910
                     }
                  }
               }
            }
         }
      }
   }
   JOINT LeftUpLeg
   {
      OFFSET 8.945800 -8.667070 0.101652
      CHANNELS 3 Zrotation Xrotation Yrotation
      JOINT LeftLeg
      {
         OFFSET 0.000000 -44.422697 1.372700
         CHANNELS 3 Zrotation Xrotation Yrotation
         JOINT LeftFoot
         {
            OFFSET -0.253549 -42.092399 -1.460590
            CHANNELS 3 Zrotation Xrotation Yrotation
            JOINT LeftToes
            {
               OFFSET -0.040000 -4.415090 8.499099
               CHANNELS 3 Zrotation Xrotation Yrotation
               End Site
               {
                  OFFSET 0.080000 -0.047448 9.779790
               }
            }
         }
      }
   }
}
MOTION
Frames: 12
Frame Time: 0.016667
-409.417337 99.248961 -45.000896 17.969755 -14.961171 42.601959 -1.946724 -8.599687 -95.204887 -31.030956 0.545714 29.817792 -28.739623 -1.431318 67.828211 25.036070 -9.691127 -14.150753 -11.257845 26.029861 141.591502 15.454775 -14.380244 -132.055779 4.981296 4.017535 -11.055387 -1.688820 57.535628 -2.156230 -119.352652 -17.624770 -167.152556 -42.900237 -1.255695 -38.043477 -63.162202 -42.762489 -43.509104 -36.134078 67.916184 72.909858 111.385796 74.606423 179.167200 23.865043 120.095790 48.222894 15.839523 7.988126 43.105829 10.740044 -13.867835 -137.128560 -15.722909 -24.865353 157.806958 21.482410 38.939281 -6.970047 -67.566670 -29.471095 10.711753
-409.626192 99.357880 -44.850377 17.625057 -14.657407 44.725305 -1.821785 -9.706091 -103.388785 -32.259824 -3.824103 33.876523 -28.612779 -1.224452 69.348126 25.871167 -9.187822 -13.376166 -9.450082 24.318272 141.805027 16.663785 -14.555628 -131.171351 3.388189 5.118750 -11.652244 2.111745 48.408221 -3.232750 -109.576465 -30.751742 -152.821958 -39.084439 -7.645334 -45.423302 -62.379906 -43.906730 -45.618478 -33.698634 71.714766 70.868684 109.315033 80.521578 181.405931 26.562327 128.224138 50.110031 14.714901 6.360531 45.225493 10.159543 -14.576144 -139.066681 -16.046121 -24.139601 157.225532 17.044281 37.231279 -5.082080 -67.523236 -30.699508 9.780650
-409.705576 99.493693 -44.697770 15.719294 -14.154457 47.384110 -1.227604 -11.265207 -110.758703 -32.444170 -6.356183 35.695200 -28.947653 -0.359034 70.477587 26.796557 -8.451651 -13.162174 -7.659687 22.877918 140.829348 17.357628 -15.824131 -131.480472 1.927285 5.564811 -12.603064 5.126987 39.252452 -5.278987 -94.235205 -42.219090 -135.560349 -34.323593 -15.857471 -52.148610 -59.434612 -46.245964 -47.139421 -30.642653 75.774829 68.418913 105.640248 85.654643 182.681701 28.578102 136.142349 52.037456 12.966431 5.490479 46.598197 9.907877 -16.426672 -140.576085 -16.359872 -22.553254 157.207964 12.981082 36.177876 -2.885782 -67.773433 -31.226354 8.925111
-409.622224 99.676598 -44.528975 14.169311 -13.786313 48.703921 -1.603056 -12.638208 -116.031499 -32.408011 -7.379433 36.327994 -28.465840 0.415456 72.051932 27.591902 -8.050897 -12.612167 -6.407244 22.406458 140.717292 17.534445 -16.383576 -132.044031 0.596969 4.823120 -13.490734 7.617496 32.885923 -8.263254 -74.473275 -51.878705 -116.208497 -29.970023 -24.011813 -57.650000 -57.115415 -48.072890 -49.519831 -27.466955 78.480602 65.068104 100.866437 90.999129 185.251614 31.209487 143.985906 55.462963 10.405393 3.029575 47.181779 10.201514 -17.993305 -141.448355 -16.612082 -22.098531 157.282413 8.885410 35.500776 -0.956916 -68.128050 -31.369795 7.867440
-409.438585 99.890641 -44.367055 13.104068 -13.067265 49.843773 -2.100771 -13.628487 -119.143088 -32.244667 -8.121167 35.578872 -28.067503 0.867734 73.562599 28.239400 -8.087425 -11.880648 -5.426841 22.867501 140.775253 17.314043 -16.807700 -133.442362 -0.674548 3.403708 -14.307338 9.382387 30.441419 -11.635173 -51.917624 -58.995240 -94.978227 -26.076409 -31.856941 -61.316883 -55.134267 -49.855689 -51.813474 -23.934141 78.326765 61.025124 95.283755 96.936661 190.526119 33.647872 150.737617 59.077994 7.926992 1.374915 48.122439 10.410381 -19.388865 -142.009140 -16.643895 -22.376161 157.147408 4.824745 34.513345 0.675396 -68.472325 -31.329285 6.463749
-409.277109 100.118006 -44.260186 13.007983 -12.744926 51.257961 -2.612053 -13.640243 -120.559136 -32.109973 -8.452467 33.531045 -27.969773 1.446982 74.908324 28.812057 -8.289166 -11.136203 -5.598676 23.222201 140.482306 17.035801 -16.212316 -136.060770 -2.012572 1.786008 -15.021247 10.732543 32.257843 -13.630262 -28.618281 -64.333128 -72.107878 -22.788583 -38.686724 -62.792600 -53.590614 -51.521490 -53.598909 -20.899477 76.130415 55.570235 89.197544 102.869643 198.267674 37.664901 157.271225 65.452528 5.261591 -0.996303 50.313185 10.410385 -20.026366 -142.228881 -16.606382 -23.357975 157.023508 0.908905 33.233600 2.272672 -68.808630 -31.136934 5.077177
-409.110063 100.317429 -44.205827 12.853099 -12.481074 51.566859 -3.025662 -13.923023 -121.529214 -32.329174 -8.666254 31.766817 -27.841651 2.130911 76.328211 29.333685 -8.580869 -10.313467 -4.877132 23.617037 140.213115 17.510131 -16.289549 -137.984492 -3.417624 0.174287 -15.625014 12.140889 36.435822 -17.154297 -5.146058 -67.318686 -48.771311 -19.673400 -44.738849 -62.503833 -52.521139 -53.049693 -55.288510 -16.569711 73.176092 51.170643 83.723496 108.972649 205.861546 40.642218 162.999036 71.111961 2.884998 -2.786364 50.896941 10.439070 -19.462747 -142.738509 -16.261198 -22.966820 156.971298 -2.683155 31.951946 3.970878 -69.073382 -30.779438 3.611199
-408.907388 100.505074 -44.182548 13.213272 -12.658561 51.850913 -3.377662 -13.648442 -122.280426 -32.774994 -8.894820 30.190065 -27.840280 3.022344 77.698415 29.860395 -8.763398 -9.556989 -4.038398 23.377497 140.348421 18.099883 -16.886429 -139.264224 -4.938486 -1.373633 -16.104102 13.937571 42.117071 -21.394517 17.997219 -68.908467 -25.926843 -16.976218 -49.624118 -60.920424 -51.997195 -54.344885 -56.701734 -11.946980 69.099699 47.331828 78.641241 115.037297 213.934338 44.961336 167.197444 75.350906 0.668060 -4.708674 51.256844 10.540952 -18.760446 -142.692870 -16.371704 -22.759824 157.470107 -6.304524 31.054500 5.887369 -69.546660 -29.709434 2.784329
-408.682169 100.702609 -44.172692 14.030540 -13.027269 51.801196 -3.749344 -13.019972 -123.074053 -33.181247 -9.364517 28.793697 -27.936008 4.096712 78.990824 30.395745 -8.802423 -8.882405 -3.952954 23.870721 140.349828 19.102764 -17.766521 -140.470750 -6.607422 -2.956117 -16.453437 16.038845 49.260984 -25.486335 39.007958 -70.397926 -3.009436 -14.880843 -52.946134 -60.520585 -52.045942 -55.413618 -57.860759 -6.952136 64.254397 44.071615 74.186052 120.902094 222.135838 50.182824 170.923585 82.020456 -1.724968 -6.675823 53.016195 10.755255 -17.716351 -142.333574 -16.590898 -22.853512 158.127021 -10.140088 30.326265 7.641967 -70.160823 -27.914905 2.273669
-408.439325 100.935515 -44.178881 14.564006 -13.011537 51.760710 -4.109306 -12.743845 -124.050989 -33.419429 -10.128377 27.623903 -27.956477 5.067568 80.197315 30.894633 -8.880458 -8.219441 -4.297120 24.273314 140.493480 19.394684 -18.827550 -141.613235 -8.232025 -4.647195 -16.717566 19.046874 56.020812 -29.579521 59.249050 -70.882945 18.103811 -12.945965 -55.693933 -59.466653 -52.275116 -56.364961 -59.442856 -2.222138 57.618643 40.963769 70.316381 126.454314 230.646746 54.169059 173.857671 86.848184 -3.780326 -8.637348 52.943665 11.334862 -17.292123 -141.971629 -16.838044 -23.492185 158.557569 -14.689676 29.956161 8.670468 -70.974340 -25.156118 1.887988
-408.236459 101.180361 -44.219107 15.226730 -13.336605 52.611048 -4.305592 -12.144657 -125.279084 -33.605244 -11.035740 26.624352 -28.144407 6.211037 81.289175 31.407457 -8.804421 -7.575212 -5.046416 23.941142 141.415201 19.971348 -19.325945 -142.420946 -10.418388 -6.483803 -16.769528 22.362154 62.537943 -33.280168 78.653098 -70.824335 37.459049 -11.360425 -57.432192 -59.034493 -53.029186 -56.872441 -61.849330 2.877798 50.453293 38.614768 67.413400 132.069699 239.595523 57.979946 175.537392 91.939325 -6.089521 -10.800365 52.748260 11.747884 -16.629670 -141.712983 -16.798591 -23.890864 159.048810 -18.397304 28.703672 10.329267 -71.110233 -23.992260 1.224682
-408.060754 101.438483 -44.180006 14.972622 -12.775699 51.937073 -4.599220 -12.751308 -126.775633 -33.401025 -12.070872 25.999510 -28.200039 6.985221 82.446414 31.838961 -8.841111 -6.722819 -5.315970 25.501684 141.079798 20.016687 -20.601410 -144.073155 -11.512210 -8.364441 -16.963523 26.457945 68.798542 -36.269688 95.752982 -70.500038 55.710079 -10.102149 -57.832789 -55.963917 -54.738294 -56.606108 -63.479348 7.142207 42.070062 36.484729 63.643259 137.347468 247.906743 61.722801 177.393523 96.519343 -7.521717 -12.161793 51.462873 11.765285 -16.612941 -141.477219 -16.548474 -23.861377 159.646383 -21.147121 26.361330 12.688022 -70.594492 -24.444299 0.293088
